<?xml version="1.0" encoding="UTF-8"?>
<svg width="200px" height="200px" viewBox="0 0 200 200" version="1.1" xmlns="http://www.w3.org/2000/svg" xmlns:xlink="http://www.w3.org/1999/xlink">
    <title>Telehealth Logo</title>
    <g id="Logo" stroke="none" stroke-width="1" fill="none" fill-rule="evenodd">
        <path d="M155,85 C159.418278,85 163,88.581722 163,93 C163,97.418278 159.418278,101 155,101 C150.581722,101 147,97.418278 147,93 C147,88.581722 150.581722,85 155,85 Z" id="Head" fill="#FFFFFF"></path>
        <path d="M100,40 C127.614237,40 150,62.3857625 150,90 C150,117.614237 127.614237,140 100,140 C72.3857625,140 50,117.614237 50,90 C50,62.3857625 72.3857625,40 100,40 Z M100,60 C83.4314575,60 70,73.4314575 70,90 C70,106.568542 83.4314575,120 100,120 C116.568542,120 130,106.568542 130,90 C130,73.4314575 116.568542,60 100,60 Z" id="Heart" fill="#FFFFFF" fill-rule="nonzero"></path>
        <path d="M40,70 C40,70 62.6240601,86.1721961 75,110 C83.9359734,126.951487 65,155 65,155 C65,155 44.2,139.4 40,115 C35.8,90.6 40,70 40,70 Z" id="Hand" fill="#FFFFFF"></path>
    </g>
</svg> 